<svg xmlns="http://www.w3.org/2000/svg" xmlns:xlink="http://www.w3.org/1999/xlink" width="1920" zoomAndPan="magnify" viewBox="0 0 1440 809.999993" height="1080" preserveAspectRatio="xMidYMid meet" version="1.0"><defs><clipPath id="3932ba443b"><path d="M 137.789062 265 L 323 265 L 323 381 L 137.789062 381 Z M 137.789062 265 " clip-rule="nonzero"/></clipPath><clipPath id="d25b59763f"><path d="M 1037.265625 489.132812 L 1302.539062 489.132812 L 1302.539062 633.121094 L 1037.265625 633.121094 Z M 1037.265625 489.132812 " clip-rule="nonzero"/></clipPath></defs><rect x="-144" width="1728" fill="#ffffff" y="-80.999999" height="971.999992" fill-opacity="1"/><rect x="-144" width="1728" fill="#000000" y="-80.999999" height="971.999992" fill-opacity="1"/><path fill="#000000" d="M 282.433594 596.851562 L 1266.054688 596.851562 L 1266.054688 372.863281 L 1159.03125 265.875 L 529.882812 265.875 L 493.902344 301.839844 L 175.40625 301.839844 L 175.40625 489.867188 L 282.433594 596.851562 " fill-opacity="1" fill-rule="nonzero"/><path fill="#d07046" d="M 274.539062 615.898438 L 1285.113281 615.898438 L 1285.113281 364.972656 L 1166.921875 246.824219 L 521.988281 246.824219 L 486.007812 282.789062 L 156.351562 282.789062 L 156.351562 497.757812 Z M 1289.6875 620.472656 L 272.648438 620.472656 L 271.976562 619.800781 L 151.777344 499.648438 L 151.777344 278.21875 L 484.113281 278.21875 L 520.09375 242.253906 L 1168.820312 242.253906 L 1169.492188 242.921875 L 1289.6875 363.078125 L 1289.6875 620.472656 " fill-opacity="1" fill-rule="nonzero"/><path fill="#d07046" d="M 282.433594 596.851562 L 1266.054688 596.851562 L 1266.054688 372.863281 L 1159.03125 265.875 L 529.882812 265.875 L 493.902344 301.839844 L 175.40625 301.839844 L 175.40625 489.867188 Z M 1270.628906 601.421875 L 280.539062 601.421875 L 170.832031 491.757812 L 170.832031 297.265625 L 492.003906 297.265625 L 527.988281 261.300781 L 1160.921875 261.300781 L 1270.628906 370.96875 L 1270.628906 601.421875 " fill-opacity="1" fill-rule="nonzero"/><g clip-path="url(#3932ba443b)"><path fill="#d07046" d="M 155.367188 380.734375 L 137.789062 361.488281 L 137.789062 265.046875 L 307.859375 265.046875 L 322.929688 282.621094 L 155.367188 282.621094 L 155.367188 380.734375 " fill-opacity="1" fill-rule="nonzero"/></g><path fill="#d07046" d="M 324.542969 265.046875 L 313.871094 265.046875 L 328.9375 282.621094 L 339.613281 282.621094 L 324.542969 265.046875 " fill-opacity="1" fill-rule="nonzero"/><path fill="#d07046" d="M 340.378906 265.046875 L 329.703125 265.046875 L 344.773438 282.621094 L 355.445312 282.621094 L 340.378906 265.046875 " fill-opacity="1" fill-rule="nonzero"/><path fill="#d07046" d="M 356.214844 265.046875 L 345.539062 265.046875 L 360.609375 282.621094 L 371.28125 282.621094 L 356.214844 265.046875 " fill-opacity="1" fill-rule="nonzero"/><path fill="#d07046" d="M 372.050781 265.046875 L 361.375 265.046875 L 376.445312 282.621094 L 387.117188 282.621094 L 372.050781 265.046875 " fill-opacity="1" fill-rule="nonzero"/><path fill="#d07046" d="M 387.882812 265.046875 L 377.210938 265.046875 L 392.277344 282.621094 L 402.949219 282.621094 L 387.882812 265.046875 " fill-opacity="1" fill-rule="nonzero"/><path fill="#d07046" d="M 403.71875 265.046875 L 393.042969 265.046875 L 408.113281 282.621094 L 418.785156 282.621094 L 403.71875 265.046875 " fill-opacity="1" fill-rule="nonzero"/><path fill="#d07046" d="M 419.554688 265.046875 L 408.878906 265.046875 L 423.945312 282.621094 L 434.621094 282.621094 L 419.554688 265.046875 " fill-opacity="1" fill-rule="nonzero"/><path fill="#d07046" d="M 435.386719 265.046875 L 424.714844 265.046875 L 439.78125 282.621094 L 450.457031 282.621094 L 435.386719 265.046875 " fill-opacity="1" fill-rule="nonzero"/><path fill="#d07046" d="M 451.222656 265.046875 L 440.550781 265.046875 L 455.617188 282.621094 L 466.289062 282.621094 L 451.222656 265.046875 " fill-opacity="1" fill-rule="nonzero"/><g clip-path="url(#d25b59763f)"><path fill="#d07046" d="M 1302.550781 633.121094 L 1058.078125 633.121094 L 1037.929688 616.203125 L 1285.628906 616.203125 L 1285.628906 489.3125 L 1302.550781 507.035156 L 1302.550781 633.121094 " fill-opacity="1" fill-rule="nonzero"/></g></svg>