<svg version="1.2" xmlns="http://www.w3.org/2000/svg" viewBox="0 0 400 400" width="400" height="400">
	<title>Dự án mới</title>
	<style>
		.s0 { fill: #0f237d } 
		.s1 { fill: #04c048 } 
	</style>
	<g id="Logo copy">
		<path id="&lt;Path&gt;" class="s0" d="m155.5 344.1c-29.9 17.8-67.8-3.4-68.3-38.1l-1.1-80-1.1-80.1c-0.5-34.7 36.8-57 67.2-40l69.8 39 69.9 39.1c30.3 17 30.9 60.4 1.1 78.2l-68.8 41z"/>
		<path id="&lt;Path&gt;" class="s1" d="m224.4 258.9c-9.1 17.4-25.8 28.1-44.9 31.5q-3.5 0.6-7 0.9c-10.5 1-22.4-2.3-31.6-6.9-9-4.3-16.7-10.8-22.6-18.8-8.9-12.3-14.4-26.5-12.5-41.7 0.9-7.2 2.7-14.4 5.5-21.1 8.6-20.7 26.5-33.7 48.6-36.7 5.5-0.8 11.2-1 16.7-0.8 0 0 0 30.2 0 34.4-0.1-0.3-8.6 0.2-9.3 0.2-3.7 0.3-6.9 0.8-10.4 2-2.4 0.9-4.6 2.3-6.6 3.9-4.5 3.6-7.8 8.7-9.2 14.4q-0.6 2.2-0.8 4.4c-0.7 9.1 3.2 17.9 10.1 23.8 10 8.5 25.1 9.7 36.1 2.4 12.1-8.1 11.6-26.1 11.8-38.9 0.2-15.5 0.2-58.3 0.1-73.8l34.4 19.5-0.5 33.2c0 23 3.3 47-7.9 68.1z"/>
		<path id="&lt;Path&gt;" class="s1" d="m235 49l0.2 70.6c23.4 18.2 50.8 16.2 50.8 16.2v-36.9c-48.6-4.7-51-49.9-51-49.9z"/>
		<path id="&lt;Path&gt;" class="s1" d="m198.4 126l34.4 18.5v-27.3c0 0 2.5 2.5 2.6 2.5l-0.4-68.5v-0.1c0-1.3 0-2.1 0-2.1h-36.6c0.3 0 0 75.8 0 77z"/>
	</g>
	<g id="Logo">
		<path id="&lt;Path&gt;" class="s0" d="m155.5 344.1c-29.9 17.8-67.8-3.4-68.3-38.1l-1.1-80-1.1-80.1c-0.5-34.7 36.8-57 67.2-40l69.8 39 69.9 39.1c30.3 17 30.9 60.4 1.1 78.2l-68.8 41z"/>
		<path id="&lt;Path&gt;" class="s1" d="m224.4 258.9c-9.1 17.4-25.8 28.1-44.9 31.5q-3.5 0.6-7 0.9c-10.5 1-22.4-2.3-31.6-6.9-9-4.3-16.7-10.8-22.6-18.8-8.9-12.3-14.4-26.5-12.5-41.7 0.9-7.2 2.7-14.4 5.5-21.1 8.6-20.7 26.5-33.7 48.6-36.7 5.5-0.8 11.2-1 16.7-0.8 0 0 0 30.2 0 34.4-0.1-0.3-8.6 0.2-9.3 0.2-3.7 0.3-6.9 0.8-10.4 2-2.4 0.9-4.6 2.3-6.6 3.9-4.5 3.6-7.8 8.7-9.2 14.4q-0.6 2.2-0.8 4.4c-0.7 9.1 3.2 17.9 10.1 23.8 10 8.5 25.1 9.7 36.1 2.4 12.1-8.1 11.6-26.1 11.8-38.9 0.2-15.5 0.2-58.3 0.1-73.8l34.4 19.5-0.5 33.2c0 23 3.3 47-7.9 68.1z"/>
		<path id="&lt;Path&gt;" class="s1" d="m235 49l0.2 70.6c23.4 18.2 50.8 16.2 50.8 16.2v-36.9c-48.6-4.7-51-49.9-51-49.9z"/>
		<path id="&lt;Path&gt;" class="s1" d="m198.4 126l34.4 18.5v-27.3c0 0 2.5 2.5 2.6 2.5l-0.4-68.5v-0.1c0-1.3 0-2.1 0-2.1h-36.6c0.3 0 0 75.8 0 77z"/>
	</g>
</svg>